<?xml version="1.0" standalone="no"?>
<!DOCTYPE svg PUBLIC "-//W3C//DTD SVG 20010904//EN"
 "http://www.w3.org/TR/2001/REC-SVG-20010904/DTD/svg10.dtd">
<svg version="1.0" xmlns="http://www.w3.org/2000/svg"
 width="512.000000pt" height="512.000000pt" viewBox="0 0 512.000000 512.000000"
 preserveAspectRatio="xMidYMid meet">

<g transform="translate(0.000000,512.000000) scale(0.100000,-0.100000)"
fill="#000000" stroke="none">
<path d="M3547 4240 c-109 -37 -172 -69 -263 -132 -68 -47 -171 -145 -225
-216 -25 -33 -27 -33 -68 -22 -105 28 -219 42 -391 47 -249 8 -404 -10 -627
-73 l-93 -26 -80 75 c-185 174 -392 268 -624 284 -139 10 -175 -20 -197 -158
-23 -147 0 -411 60 -683 l28 -130 -33 -52 c-98 -152 -174 -350 -216 -556 -20
-97 -23 -143 -23 -333 0 -236 9 -302 60 -460 88 -270 270 -497 529 -659 48
-30 91 -56 96 -58 4 -2 -7 -57 -26 -123 -52 -178 -84 -329 -129 -612 -5 -30
-3 -33 57 -66 161 -89 444 -190 656 -233 404 -82 798 -68 1193 40 126 35 321
107 412 152 l47 24 0 63 c0 155 -43 560 -79 745 l-18 92 94 67 c321 227 534
546 610 913 22 106 24 351 4 460 -46 254 -170 500 -360 716 l-80 91 16 94 c21
130 13 382 -16 496 -25 102 -70 200 -104 232 -41 37 -104 38 -210 1z m26
-1094 c123 -59 242 -246 172 -272 -8 -4 -39 13 -75 39 -80 61 -145 82 -246 81
-68 0 -90 -5 -145 -31 -36 -16 -87 -51 -114 -76 -27 -26 -52 -47 -55 -47 -14
0 -30 26 -30 50 0 31 40 118 75 164 90 118 276 159 418 92z m-1110 -28 c80
-38 160 -116 202 -201 37 -74 43 -105 23 -125 -20 -20 -38 -14 -88 28 -76 64
-170 103 -260 108 -130 7 -231 -32 -325 -128 -51 -52 -74 -60 -95 -35 -28 34
29 181 101 260 83 90 172 126 299 122 66 -2 98 -9 143 -29z m743 -573 c22 -34
14 -59 -44 -136 -76 -100 -113 -109 -208 -53 -85 50 -144 106 -144 136 0 50
16 57 150 66 220 16 227 15 246 -13z m194 -297 c-1 -65 -82 -164 -154 -188
-27 -9 -49 -9 -87 -1 -46 10 -55 9 -83 -8 -92 -59 -110 -65 -181 -66 -59 0
-78 5 -124 30 -52 29 -111 88 -111 112 0 26 24 24 92 -7 62 -29 76 -32 126
-26 65 8 127 41 160 85 27 36 48 39 96 10 39 -23 104 -27 149 -10 16 6 45 29
64 51 41 46 53 50 53 18z m-531 -1213 c41 -20 90 -47 108 -61 l32 -25 42 42
c44 44 157 103 186 97 28 -5 46 -82 47 -208 1 -138 -9 -165 -57 -157 -37 6
-128 46 -173 76 l-31 21 -27 -40 c-49 -74 -186 -160 -256 -160 -38 0 -92 143
-105 280 -7 72 8 189 26 200 15 10 116 -22 208 -65z"/>
</g>
</svg>
