<svg version="1.2" xmlns="http://www.w3.org/2000/svg" viewBox="0 0 241 241" width="241" height="241">
	<style>
		.s0 { fill: #a950ff }
		.s1 { fill: #e9c1ff }
		.s2 { fill: #cd88ff }
		.s3 { fill: #f62e76 }
	</style>
	<path class="s0" d="m115.4 101.1c3.2-3.2 8.5-3.2 11.8 0l13.4 13.5c3.3 3.2 3.3 8.5 0 11.8l-13.4 13.4c-3.3 3.3-8.6 3.3-11.8 0l-13.4-13.4c-3.3-3.3-3.3-8.6 0-11.8z"/>
	<path class="s0" d="m177.2 101c3.2-3.2 8.4-3.2 11.6 0l13.6 13.7c3.2 3.2 3.2 8.4 0 11.6l-13.6 13.6c-3.2 3.2-8.4 3.2-11.6 0l-13.7-13.6c-3.2-3.2-3.2-8.4 0-11.6 3.2-3.2 13.7-13.7 13.7-13.7z"/>
	<path class="s1" d="m115.5 39.3c3.2-3.2 8.4-3.2 11.6 0l13.6 13.7c3.2 3.2 3.2 8.4 0 11.6l-13.6 13.6c-3.2 3.2-8.4 3.2-11.6 0l-13.7-13.6c-3.2-3.2-3.2-8.4 0-11.6z"/>
	<path class="s2" d="m109.8 83.7c3.2 3.3 3.2 8.6 0 11.8l-13.5 13.5c-3.2 3.2-8.5 3.2-11.8 0l-13.4-13.5c-3.3-3.2-3.3-8.5 0-11.8l13.4-13.4c3.3-3.3 8.6-3.3 11.8 0z"/>
	<path class="s0" d="m79 114.7c3.2 3.2 3.2 8.4 0 11.6l-13.6 13.6c-3.2 3.2-8.4 3.2-11.6 0l-13.6-13.6c-3.3-3.2-3.3-8.4 0-11.6l13.6-13.7c3.2-3.2 8.4-3.2 11.6 0z"/>
	<path class="s2" d="m171.5 83.7c3.2 3.3 3.2 8.6 0 11.8l-13.5 13.5c-3.2 3.2-8.5 3.2-11.8 0l-13.4-13.5c-3.3-3.2-3.3-8.5 0-11.8l13.4-13.4c3.3-3.3 8.6-3.3 11.8 0z"/>
	<path class="s3" d="m134.5 171.8c7.3 7.3 7.3 19.2 0 26.4-7.3 7.3-19.1 7.3-26.4 0-7.3-7.2-7.3-19.1 0-26.4 7.3-7.3 19.1-7.3 26.4 0z"/>
</svg>